<svg width="150" height="154" viewBox="0 0 150 154" fill="none" xmlns="http://www.w3.org/2000/svg">
<path d="M104.877 116.648C102.906 116.648 100.985 117.288 99.4089 118.47L87.8325 127.14C85.1724 120.983 79.2118 116.894 72.3645 116.894H64.9261L59.7044 111.13C56.3547 107.485 51.6256 105.367 46.6995 105.367H41.8719C37.1429 105.367 32.7586 107.189 29.4089 110.539L28.0788 111.869H26.4039C25.5172 107.534 21.6749 104.283 17.0936 104.283H3.7931C1.67488 104.283 0 105.958 0 108.076V146.056C0 148.175 1.67488 149.85 3.7931 149.85H17.0936C21.5764 149.85 25.2709 146.746 26.3054 142.608H28.5714L39.6059 149.751C43.5961 152.313 48.2266 153.692 52.9557 153.692H80.6897C87.0936 153.692 93.1527 151.229 97.7833 146.795L111.182 133.84C112.956 132.116 113.941 129.751 113.941 127.288V125.761C113.941 120.736 109.852 116.648 104.828 116.648H104.877ZM19.0148 140.342C19.0148 141.377 18.1773 142.263 17.0936 142.263H7.58621V111.869H17.0936C18.1281 111.869 19.0148 112.707 19.0148 113.79V140.391V140.342ZM106.404 127.239C106.404 127.633 106.256 128.027 105.961 128.322L92.5616 141.278C89.3596 144.332 85.1724 146.056 80.7389 146.056H53.0049C49.7044 146.056 46.5517 145.121 43.7931 143.347L31.7734 135.613C31.1823 135.219 30.4433 135.022 29.7044 135.022H26.601V119.505H29.7044C30.6897 119.505 31.6749 119.111 32.4138 118.372L34.8276 115.958C36.6995 114.086 39.2118 113.002 41.9212 113.002H46.7488C49.5566 113.002 52.266 114.185 54.1379 116.254L60.4926 123.249C61.2315 124.037 62.2168 124.48 63.3005 124.48H72.4138C75.9606 124.48 79.064 126.451 80.6404 129.505H66.0591C63.9409 129.505 62.266 131.18 62.266 133.298C62.266 135.416 63.9409 137.091 66.0591 137.091H85.9606C86.798 137.091 87.5862 136.845 88.2266 136.352L104.039 124.529C104.975 123.84 106.404 124.579 106.404 125.712V127.239Z" fill="#00537F"/>
<path d="M45.1231 36.9924C47.0936 36.9924 49.0147 36.352 50.5911 35.1697L62.1675 26.4998C64.8276 32.6574 70.7881 36.7461 77.6354 36.7461H85.0739L90.2955 42.5096C93.6453 46.1549 98.3744 48.2732 103.3 48.2732H108.128C112.857 48.2732 117.241 46.4505 120.591 43.1008L121.921 41.7707H123.596C124.483 46.1057 128.325 49.3569 132.906 49.3569H146.207C148.325 49.3569 150 47.682 150 45.5638V7.58352C150 5.46529 148.325 3.79042 146.207 3.79042H132.906C128.424 3.79042 124.729 6.89387 123.695 11.0318H121.429L110.394 3.88894C106.404 1.37662 101.773 -0.00268555 97.0443 -0.00268555H69.3103C62.9064 -0.00268555 56.8473 2.46037 52.2167 6.89387L38.8177 19.8495C37.0443 21.5737 36.0591 23.9382 36.0591 26.4013V27.9283C36.0591 32.953 40.1478 37.0416 45.1724 37.0416L45.1231 36.9924ZM130.985 13.2978C130.985 12.2633 131.823 11.3766 132.906 11.3766H142.414V41.7707H132.906C131.872 41.7707 130.985 40.9333 130.985 39.8495V13.2978ZM43.596 26.4013C43.596 26.0072 43.7438 25.6131 44.0394 25.3175L57.4384 12.3618C60.6404 9.30766 64.8276 7.58352 69.2611 7.58352H96.995C100.296 7.58352 103.448 8.51948 106.207 10.2929L118.227 18.0269C118.818 18.421 119.557 18.618 120.296 18.618H123.399V34.1352H120.296C119.31 34.1352 118.325 34.5293 117.586 35.2682L115.172 37.682C113.3 39.554 110.788 40.6377 108.079 40.6377H103.251C100.443 40.6377 97.734 39.4554 95.862 37.3865L89.5074 30.3914C88.7684 29.6032 87.7832 29.1599 86.6995 29.1599H77.5862C74.0394 29.1599 70.9359 27.1894 69.3596 24.1352H83.9409C86.0591 24.1352 87.734 22.4604 87.734 20.3421C87.734 18.2239 86.0591 16.549 83.9409 16.549H64.0394C63.2019 16.549 62.4138 16.7953 61.7734 17.288L45.9606 29.1106C45.0246 29.8003 43.596 29.0614 43.596 27.9283V26.4013Z" fill="#00537F"/>
<path d="M103.695 74.3323C109.326 74.3323 113.892 69.767 113.892 64.1353C113.892 58.5036 109.326 53.9382 103.695 53.9382C98.0629 53.9382 93.4976 58.5036 93.4976 64.1353C93.4976 69.767 98.0629 74.3323 103.695 74.3323Z" fill="#C8D400"/>
<path d="M46.3052 74.4802C51.9369 74.4802 56.5022 69.9148 56.5022 64.2831C56.5022 58.6514 51.9369 54.0861 46.3052 54.0861C40.6735 54.0861 36.1082 58.6514 36.1082 64.2831C36.1082 69.9148 40.6735 74.4802 46.3052 74.4802Z" fill="#C8D400"/>
<path d="M115.813 76.0072C112.709 79.1599 108.473 81.0811 103.694 81.0811C102.217 81.0811 100.837 80.8348 99.458 80.49C100.739 83.5934 101.379 86.9432 101.379 90.3914V92.4111C101.379 94.4308 100.985 96.3028 100.295 98.0762H112.167C116.847 98.0762 120.64 94.2831 120.64 89.6033V87.9284C120.64 83.2978 118.768 79.1106 115.763 76.0565L115.813 76.0072Z" fill="#C8D400"/>
<path d="M50.2955 80.687C49.0147 80.9826 47.6846 81.2289 46.2561 81.2289C41.527 81.2289 37.2413 79.2585 34.1378 76.155C31.1329 79.2092 29.261 83.3964 29.261 88.027V89.7018C29.261 94.3816 33.0541 98.1747 37.7339 98.1747H49.6058C48.8669 96.3521 48.4235 94.3324 48.4235 92.2141V90.1944C48.4235 86.8939 49.0639 83.692 50.1969 80.687H50.2955Z" fill="#C8D400"/>
<path d="M75.0246 73.9875C81.7717 73.9875 87.2414 68.5178 87.2414 61.7707C87.2414 55.0236 81.7717 49.554 75.0246 49.554C68.2775 49.554 62.8079 55.0236 62.8079 61.7707C62.8079 68.5178 68.2775 73.9875 75.0246 73.9875Z" fill="#C8D400"/>
<path d="M89.5073 76.0072C85.8127 79.751 80.6895 82.1156 75.0245 82.1156C69.3595 82.1156 64.2363 79.751 60.5418 76.0072C56.9457 79.7018 54.6797 84.6771 54.6797 90.2437V92.2634C54.6797 97.8791 59.261 102.411 64.8275 102.411H85.1723C90.7881 102.411 95.3201 97.8299 95.3201 92.2634V90.2437C95.3201 84.6771 93.1033 79.7018 89.458 76.0072H89.5073Z" fill="#C8D400"/>
</svg>
