<svg width="36" height="36" viewBox="0 0 36 36" fill="none" xmlns="http://www.w3.org/2000/svg">
<path d="M28.5612 5.64C26.9922 4.07905 26.1273 2.0748 26.1276 0H19.0332V24.8C18.9796 26.1424 18.3295 27.4142 17.2201 28.347C16.1107 29.2798 14.6287 29.8008 13.0867 29.8C9.82653 29.8 7.11735 27.48 7.11735 24.6C7.11735 21.16 10.9286 18.58 14.8546 19.64V13.32C6.93367 12.4 0 17.76 0 24.6C0 31.26 6.33674 36 13.0638 36C20.273 36 26.1276 30.9 26.1276 24.6V12.02C29.0043 13.8197 32.4582 14.7853 36 14.78V8.6C36 8.6 31.6837 8.78 28.5612 5.64Z" fill="#008FC4"/>
</svg>
